<svg width="558" height="481" viewBox="0 0 558 481" fill="none" xmlns="http://www.w3.org/2000/svg">
<path d="M280.5 0V138.5C280.5 138.5 280.5 239 381 239H558C379.797 208.777 314.791 160.284 280.5 0Z" fill="currentColor"/>
<path d="M280.5 481V342.5C280.5 342.5 280.5 242 381 242H558C379.797 272.223 314.791 320.716 280.5 481Z" fill="currentColor"/>
<path d="M277.5 0V138.5C277.5 138.5 277.5 239 177 239H0C178.203 208.777 243.209 160.284 277.5 0Z" fill="currentColor"/>
<path d="M277.5 481V342.5C277.5 342.5 277.5 242 177 242H0C178.203 272.223 243.209 320.716 277.5 481Z" fill="currentColor"/>
</svg>
