<svg width="400" height="400" viewBox="0 0 400 400" fill="none" xmlns="http://www.w3.org/2000/svg">
<mask id="mask0_826_17" style="mask-type:alpha" maskUnits="userSpaceOnUse" x="0" y="0" width="400" height="400">
<rect width="400" height="400" fill="#D9D9D9"/>
</mask>
<g mask="url(#mask0_826_17)">
<rect width="400" height="400" fill="#A096FD"/>
<path d="M64 48L69.1251 66.8749L88 72L69.1251 77.1251L64 96L58.8749 77.1251L40 72L58.8749 66.8749L64 48Z" fill="#E3FFB0"/>
<path d="M64 176L69.1251 194.875L88 200L69.1251 205.125L64 224L58.8749 205.125L40 200L58.8749 194.875L64 176Z" fill="#E3FFB0"/>
<path d="M64 304L69.1251 322.875L88 328L69.1251 333.125L64 352L58.8749 333.125L40 328L58.8749 322.875L64 304Z" fill="#E3FFB0"/>
<path d="M208 48L213.125 66.8749L232 72L213.125 77.1251L208 96L202.875 77.1251L184 72L202.875 66.8749L208 48Z" fill="#E3FFB0"/>
<path d="M208 176L213.125 194.875L232 200L213.125 205.125L208 224L202.875 205.125L184 200L202.875 194.875L208 176Z" fill="#E3FFB0"/>
<path d="M208 304L213.125 322.875L232 328L213.125 333.125L208 352L202.875 333.125L184 328L202.875 322.875L208 304Z" fill="#E3FFB0"/>
<path d="M136 -16L141.125 2.87489L160 8L141.125 13.1251L136 32L130.875 13.1251L112 8L130.875 2.87489L136 -16Z" fill="#E3FFB0"/>
<path d="M136 112L141.125 130.875L160 136L141.125 141.125L136 160L130.875 141.125L112 136L130.875 130.875L136 112Z" fill="#E3FFB0"/>
<path d="M136 240L141.125 258.875L160 264L141.125 269.125L136 288L130.875 269.125L112 264L130.875 258.875L136 240Z" fill="#E3FFB0"/>
<path d="M136 368L141.125 386.875L160 392L141.125 397.125L136 416L130.875 397.125L112 392L130.875 386.875L136 368Z" fill="#E3FFB0"/>
<path d="M280 -16L285.125 2.87489L304 8L285.125 13.1251L280 32L274.875 13.1251L256 8L274.875 2.87489L280 -16Z" fill="#E3FFB0"/>
<path d="M280 112L285.125 130.875L304 136L285.125 141.125L280 160L274.875 141.125L256 136L274.875 130.875L280 112Z" fill="#E3FFB0"/>
<path d="M280 240L285.125 258.875L304 264L285.125 269.125L280 288L274.875 269.125L256 264L274.875 258.875L280 240Z" fill="#E3FFB0"/>
<path d="M280 368L285.125 386.875L304 392L285.125 397.125L280 416L274.875 397.125L256 392L274.875 386.875L280 368Z" fill="#E3FFB0"/>
<path d="M352 48L357.125 66.8749L376 72L357.125 77.1251L352 96L346.875 77.1251L328 72L346.875 66.8749L352 48Z" fill="#E3FFB0"/>
<path d="M352 176L357.125 194.875L376 200L357.125 205.125L352 224L346.875 205.125L328 200L346.875 194.875L352 176Z" fill="#E3FFB0"/>
<path d="M352 304L357.125 322.875L376 328L357.125 333.125L352 352L346.875 333.125L328 328L346.875 322.875L352 304Z" fill="#E3FFB0"/>
</g>
</svg>
