<svg width="400" height="400" viewBox="0 0 400 400" fill="none" xmlns="http://www.w3.org/2000/svg">
<mask id="mask0_816_87" style="mask-type:alpha" maskUnits="userSpaceOnUse" x="0" y="0" width="400" height="400">
<rect width="400" height="400" fill="#A395FD"/>
</mask>
<g mask="url(#mask0_816_87)">
<rect width="400" height="400" fill="#A197FF"/>
<rect x="243" y="202" width="157.976" height="239" rx="24" fill="#C7C2FD"/>
<rect x="258.008" y="221.917" width="23.6964" height="23.9" rx="11.8482" fill="#A197FF"/>
<rect x="291.183" y="228.29" width="47.3929" height="11.1533" rx="5.57667" fill="#A197FF"/>
<rect x="260.377" y="385.233" width="123.222" height="11.1533" rx="5.57667" fill="#A197FF"/>
<rect x="60" y="84" width="157.976" height="239" rx="24" fill="#C7C2FD"/>
<rect x="60" y="84" width="157.976" height="239" rx="24" fill="#C7C2FD"/>
<rect x="75.0076" y="103.917" width="23.6964" height="23.9" rx="11.8482" fill="#A197FF"/>
<rect x="108.183" y="110.29" width="47.3929" height="11.1533" rx="5.57667" fill="#A197FF"/>
<rect x="77.3774" y="267.233" width="123.222" height="11.1533" rx="5.57667" fill="#A197FF"/>
<rect x="77.3774" y="285.557" width="123.222" height="11.1533" rx="5.57667" fill="#A197FF"/>
<rect x="60" y="-180" width="157.976" height="239" rx="24" fill="#C7C2FD"/>
<rect x="60" y="-180" width="157.976" height="239" rx="24" fill="#C7C2FD"/>
<rect x="77.3774" y="3.2334" width="123.222" height="11.1533" rx="5.57667" fill="#A197FF"/>
<rect x="77.3774" y="21.5566" width="123.222" height="11.1533" rx="5.57667" fill="#A197FF"/>
<rect x="-123" y="-62" width="157.976" height="239" rx="24" fill="#C7C2FD"/>
<rect x="-123" y="-62" width="157.976" height="239" rx="24" fill="#C7C2FD"/>
<rect x="-105.623" y="121.233" width="123.222" height="11.1533" rx="5.57667" fill="#A197FF"/>
<rect x="-105.623" y="139.557" width="123.222" height="11.1533" rx="5.57667" fill="#A197FF"/>
<rect x="-123" y="202" width="157.976" height="239" rx="24" fill="#C7C2FD"/>
<rect x="-123" y="202" width="157.976" height="239" rx="24" fill="#C7C2FD"/>
<rect x="-105.623" y="385.233" width="123.222" height="11.1533" rx="5.57667" fill="#A197FF"/>
<rect x="243" y="-62" width="157.976" height="239" rx="24" fill="#C7C2FD"/>
<rect x="260.377" y="121.233" width="123.222" height="11.1533" rx="5.57667" fill="#A197FF"/>
<rect x="260.377" y="139.557" width="123.222" height="11.1533" rx="5.57667" fill="#A197FF"/>
<rect x="243" y="-62" width="157.976" height="239" rx="24" fill="#C7C2FD"/>
<rect x="260.377" y="121.233" width="123.222" height="11.1533" rx="5.57667" fill="#A197FF"/>
<rect x="260.377" y="139.557" width="123.222" height="11.1533" rx="5.57667" fill="#A197FF"/>
<rect x="60" y="348" width="157.976" height="239" rx="24" fill="#C7C2FD"/>
<rect x="75.0076" y="367.917" width="23.6964" height="23.9" rx="11.8482" fill="#A197FF"/>
<rect x="108.183" y="374.29" width="47.3929" height="11.1533" rx="5.57667" fill="#A197FF"/>
</g>
</svg>
