<svg width="400" height="400" viewBox="0 0 400 400" fill="none" xmlns="http://www.w3.org/2000/svg">
<rect width="400" height="400" fill="#A096FD"/>
<path d="M347.847 166L400 217.841V400H0V171.707L184.689 251.134L347.847 166Z" fill="#E5E4FF"/>
<path d="M0 400V121.393L70 290L85 400H0Z" fill="#D0CDFE"/>
<path d="M279.423 79.0958C291.255 93.1964 312.278 95.0356 326.378 83.2038C329.362 80.6999 331.797 77.7844 333.67 74.6099C320.812 79.4258 305.772 75.9301 296.444 64.8136C287.116 53.6971 286.286 38.2785 293.261 26.4528C289.81 27.7455 286.515 29.6372 283.531 32.1411C269.431 43.9729 267.592 64.9952 279.423 79.0958Z" fill="#DDDCFE"/>
<path d="M77 17L79.1607 22.8393L85 25L79.1607 27.1607L77 33L74.8393 27.1607L69 25L74.8393 22.8393L77 17Z" fill="#DDDCFE"/>
<path d="M25 75L27.1607 80.8393L33 83L27.1607 85.1607L25 91L22.8393 85.1607L17 83L22.8393 80.8393L25 75Z" fill="#DDDCFE"/>
<path d="M61 129L63.1607 134.839L69 137L63.1607 139.161L61 145L58.8393 139.161L53 137L58.8393 134.839L61 129Z" fill="#DDDCFE"/>
<path d="M113 67L115.161 72.8393L121 75L115.161 77.1607L113 83L110.839 77.1607L105 75L110.839 72.8393L113 67Z" fill="#DDDCFE"/>
<path d="M192 40L194.161 45.8393L200 48L194.161 50.1607L192 56L189.839 50.1607L184 48L189.839 45.8393L192 40Z" fill="#DDDCFE"/>
<path d="M200 137L202.161 142.839L208 145L202.161 147.161L200 153L197.839 147.161L192 145L197.839 142.839L200 137Z" fill="#DDDCFE"/>
<path d="M278 121L280.161 126.839L286 129L280.161 131.161L278 137L275.839 131.161L270 129L275.839 126.839L278 121Z" fill="#DDDCFE"/>
</svg>
